<?xml version="1.0" encoding="utf-8"?>
<svg xmlns="http://www.w3.org/2000/svg" xmlns:xlink="http://www.w3.org/1999/xlink" width="600" height="400" viewBox="0 0 2400 1600">
<defs>
  <clipPath id="clip730">
    <rect x="0" y="0" width="2400" height="1600"/>
  </clipPath>
</defs>
<path clip-path="url(#clip730)" d="M0 1600 L2400 1600 L2400 0 L0 0  Z" fill="#ffffff" fill-rule="evenodd" fill-opacity="1"/>
<defs>
  <clipPath id="clip731">
    <rect x="280" y="123" width="2074" height="1301"/>
  </clipPath>
</defs>
<path clip-path="url(#clip730)" d="M280.19 1423.18 L2352.76 1423.18 L2352.76 123.472 L280.19 123.472  Z" fill="#ffffff" fill-rule="evenodd" fill-opacity="1"/>
<polyline clip-path="url(#clip731)" style="stroke:#000000; stroke-linecap:round; stroke-linejoin:round; stroke-width:2; stroke-opacity:0.1; fill:none" points="461.646,1423.18 461.646,123.472 "/>
<polyline clip-path="url(#clip731)" style="stroke:#000000; stroke-linecap:round; stroke-linejoin:round; stroke-width:2; stroke-opacity:0.1; fill:none" points="747.905,1423.18 747.905,123.472 "/>
<polyline clip-path="url(#clip731)" style="stroke:#000000; stroke-linecap:round; stroke-linejoin:round; stroke-width:2; stroke-opacity:0.1; fill:none" points="1034.16,1423.18 1034.16,123.472 "/>
<polyline clip-path="url(#clip731)" style="stroke:#000000; stroke-linecap:round; stroke-linejoin:round; stroke-width:2; stroke-opacity:0.1; fill:none" points="1320.42,1423.18 1320.42,123.472 "/>
<polyline clip-path="url(#clip731)" style="stroke:#000000; stroke-linecap:round; stroke-linejoin:round; stroke-width:2; stroke-opacity:0.1; fill:none" points="1606.68,1423.18 1606.68,123.472 "/>
<polyline clip-path="url(#clip731)" style="stroke:#000000; stroke-linecap:round; stroke-linejoin:round; stroke-width:2; stroke-opacity:0.1; fill:none" points="1892.94,1423.18 1892.94,123.472 "/>
<polyline clip-path="url(#clip731)" style="stroke:#000000; stroke-linecap:round; stroke-linejoin:round; stroke-width:2; stroke-opacity:0.1; fill:none" points="2179.2,1423.18 2179.2,123.472 "/>
<polyline clip-path="url(#clip731)" style="stroke:#000000; stroke-linecap:round; stroke-linejoin:round; stroke-width:2; stroke-opacity:0.1; fill:none" points="280.19,1134.85 2352.76,1134.85 "/>
<polyline clip-path="url(#clip731)" style="stroke:#000000; stroke-linecap:round; stroke-linejoin:round; stroke-width:2; stroke-opacity:0.1; fill:none" points="280.19,812.564 2352.76,812.564 "/>
<polyline clip-path="url(#clip731)" style="stroke:#000000; stroke-linecap:round; stroke-linejoin:round; stroke-width:2; stroke-opacity:0.1; fill:none" points="280.19,490.278 2352.76,490.278 "/>
<polyline clip-path="url(#clip731)" style="stroke:#000000; stroke-linecap:round; stroke-linejoin:round; stroke-width:2; stroke-opacity:0.1; fill:none" points="280.19,167.991 2352.76,167.991 "/>
<polyline clip-path="url(#clip730)" style="stroke:#000000; stroke-linecap:round; stroke-linejoin:round; stroke-width:4; stroke-opacity:1; fill:none" points="280.19,1423.18 2352.76,1423.18 "/>
<polyline clip-path="url(#clip730)" style="stroke:#000000; stroke-linecap:round; stroke-linejoin:round; stroke-width:4; stroke-opacity:1; fill:none" points="461.646,1423.18 461.646,1404.28 "/>
<polyline clip-path="url(#clip730)" style="stroke:#000000; stroke-linecap:round; stroke-linejoin:round; stroke-width:4; stroke-opacity:1; fill:none" points="747.905,1423.18 747.905,1404.28 "/>
<polyline clip-path="url(#clip730)" style="stroke:#000000; stroke-linecap:round; stroke-linejoin:round; stroke-width:4; stroke-opacity:1; fill:none" points="1034.16,1423.18 1034.16,1404.28 "/>
<polyline clip-path="url(#clip730)" style="stroke:#000000; stroke-linecap:round; stroke-linejoin:round; stroke-width:4; stroke-opacity:1; fill:none" points="1320.42,1423.18 1320.42,1404.28 "/>
<polyline clip-path="url(#clip730)" style="stroke:#000000; stroke-linecap:round; stroke-linejoin:round; stroke-width:4; stroke-opacity:1; fill:none" points="1606.68,1423.18 1606.68,1404.28 "/>
<polyline clip-path="url(#clip730)" style="stroke:#000000; stroke-linecap:round; stroke-linejoin:round; stroke-width:4; stroke-opacity:1; fill:none" points="1892.94,1423.18 1892.94,1404.28 "/>
<polyline clip-path="url(#clip730)" style="stroke:#000000; stroke-linecap:round; stroke-linejoin:round; stroke-width:4; stroke-opacity:1; fill:none" points="2179.2,1423.18 2179.2,1404.28 "/>
<path clip-path="url(#clip730)" d="M451.924 1451.02 L470.281 1451.02 L470.281 1454.96 L456.207 1454.96 L456.207 1463.43 Q457.225 1463.08 458.244 1462.92 Q459.262 1462.73 460.281 1462.73 Q466.068 1462.73 469.447 1465.9 Q472.827 1469.08 472.827 1474.49 Q472.827 1480.07 469.355 1483.17 Q465.882 1486.25 459.563 1486.25 Q457.387 1486.25 455.119 1485.88 Q452.873 1485.51 450.466 1484.77 L450.466 1480.07 Q452.549 1481.2 454.771 1481.76 Q456.994 1482.32 459.47 1482.32 Q463.475 1482.32 465.813 1480.21 Q468.151 1478.1 468.151 1474.49 Q468.151 1470.88 465.813 1468.77 Q463.475 1466.67 459.47 1466.67 Q457.595 1466.67 455.72 1467.08 Q453.869 1467.5 451.924 1468.38 L451.924 1451.02 Z" fill="#000000" fill-rule="nonzero" fill-opacity="1" /><path clip-path="url(#clip730)" d="M722.593 1481.64 L730.232 1481.64 L730.232 1455.28 L721.922 1456.95 L721.922 1452.69 L730.186 1451.02 L734.862 1451.02 L734.862 1481.64 L742.5 1481.64 L742.5 1485.58 L722.593 1485.58 L722.593 1481.64 Z" fill="#000000" fill-rule="nonzero" fill-opacity="1" /><path clip-path="url(#clip730)" d="M761.945 1454.1 Q758.334 1454.1 756.505 1457.66 Q754.699 1461.2 754.699 1468.33 Q754.699 1475.44 756.505 1479.01 Q758.334 1482.55 761.945 1482.55 Q765.579 1482.55 767.384 1479.01 Q769.213 1475.44 769.213 1468.33 Q769.213 1461.2 767.384 1457.66 Q765.579 1454.1 761.945 1454.1 M761.945 1450.39 Q767.755 1450.39 770.81 1455 Q773.889 1459.58 773.889 1468.33 Q773.889 1477.06 770.81 1481.67 Q767.755 1486.25 761.945 1486.25 Q756.135 1486.25 753.056 1481.67 Q750 1477.06 750 1468.33 Q750 1459.58 753.056 1455 Q756.135 1450.39 761.945 1450.39 Z" fill="#000000" fill-rule="nonzero" fill-opacity="1" /><path clip-path="url(#clip730)" d="M1009.35 1481.64 L1016.99 1481.64 L1016.99 1455.28 L1008.68 1456.95 L1008.68 1452.69 L1016.94 1451.02 L1021.62 1451.02 L1021.62 1481.64 L1029.26 1481.64 L1029.26 1485.58 L1009.35 1485.58 L1009.35 1481.64 Z" fill="#000000" fill-rule="nonzero" fill-opacity="1" /><path clip-path="url(#clip730)" d="M1038.75 1451.02 L1057.1 1451.02 L1057.1 1454.96 L1043.03 1454.96 L1043.03 1463.43 Q1044.05 1463.08 1045.07 1462.92 Q1046.09 1462.73 1047.1 1462.73 Q1052.89 1462.73 1056.27 1465.9 Q1059.65 1469.08 1059.65 1474.49 Q1059.65 1480.07 1056.18 1483.17 Q1052.71 1486.25 1046.39 1486.25 Q1044.21 1486.25 1041.94 1485.88 Q1039.7 1485.51 1037.29 1484.77 L1037.29 1480.07 Q1039.37 1481.2 1041.6 1481.76 Q1043.82 1482.32 1046.29 1482.32 Q1050.3 1482.32 1052.64 1480.21 Q1054.97 1478.1 1054.97 1474.49 Q1054.97 1470.88 1052.64 1468.77 Q1050.3 1466.67 1046.29 1466.67 Q1044.42 1466.67 1042.54 1467.08 Q1040.69 1467.5 1038.75 1468.38 L1038.75 1451.02 Z" fill="#000000" fill-rule="nonzero" fill-opacity="1" /><path clip-path="url(#clip730)" d="M1299.2 1481.64 L1315.52 1481.64 L1315.52 1485.58 L1293.57 1485.58 L1293.57 1481.64 Q1296.23 1478.89 1300.82 1474.26 Q1305.42 1469.61 1306.6 1468.27 Q1308.85 1465.74 1309.73 1464.01 Q1310.63 1462.25 1310.63 1460.56 Q1310.63 1457.8 1308.69 1456.07 Q1306.77 1454.33 1303.66 1454.33 Q1301.47 1454.33 1299.01 1455.09 Q1296.58 1455.86 1293.8 1457.41 L1293.8 1452.69 Q1296.63 1451.55 1299.08 1450.97 Q1301.53 1450.39 1303.57 1450.39 Q1308.94 1450.39 1312.14 1453.08 Q1315.33 1455.77 1315.33 1460.26 Q1315.33 1462.39 1314.52 1464.31 Q1313.73 1466.2 1311.63 1468.8 Q1311.05 1469.47 1307.95 1472.69 Q1304.85 1475.88 1299.2 1481.64 Z" fill="#000000" fill-rule="nonzero" fill-opacity="1" /><path clip-path="url(#clip730)" d="M1335.33 1454.1 Q1331.72 1454.1 1329.89 1457.66 Q1328.09 1461.2 1328.09 1468.33 Q1328.09 1475.44 1329.89 1479.01 Q1331.72 1482.55 1335.33 1482.55 Q1338.97 1482.55 1340.77 1479.01 Q1342.6 1475.44 1342.6 1468.33 Q1342.6 1461.2 1340.77 1457.66 Q1338.97 1454.1 1335.33 1454.1 M1335.33 1450.39 Q1341.14 1450.39 1344.2 1455 Q1347.28 1459.58 1347.28 1468.33 Q1347.28 1477.06 1344.2 1481.67 Q1341.14 1486.25 1335.33 1486.25 Q1329.52 1486.25 1326.44 1481.67 Q1323.39 1477.06 1323.39 1468.33 Q1323.39 1459.58 1326.44 1455 Q1329.52 1450.39 1335.33 1450.39 Z" fill="#000000" fill-rule="nonzero" fill-opacity="1" /><path clip-path="url(#clip730)" d="M1585.95 1481.64 L1602.27 1481.64 L1602.27 1485.58 L1580.33 1485.58 L1580.33 1481.64 Q1582.99 1478.89 1587.57 1474.26 Q1592.18 1469.61 1593.36 1468.27 Q1595.61 1465.74 1596.49 1464.01 Q1597.39 1462.25 1597.39 1460.56 Q1597.39 1457.8 1595.44 1456.07 Q1593.52 1454.33 1590.42 1454.33 Q1588.22 1454.33 1585.77 1455.09 Q1583.34 1455.86 1580.56 1457.41 L1580.56 1452.69 Q1583.38 1451.55 1585.84 1450.97 Q1588.29 1450.39 1590.33 1450.39 Q1595.7 1450.39 1598.89 1453.08 Q1602.09 1455.77 1602.09 1460.26 Q1602.09 1462.39 1601.28 1464.31 Q1600.49 1466.2 1598.38 1468.8 Q1597.81 1469.47 1594.7 1472.69 Q1591.6 1475.88 1585.95 1481.64 Z" fill="#000000" fill-rule="nonzero" fill-opacity="1" /><path clip-path="url(#clip730)" d="M1612.13 1451.02 L1630.49 1451.02 L1630.49 1454.96 L1616.42 1454.96 L1616.42 1463.43 Q1617.44 1463.08 1618.45 1462.92 Q1619.47 1462.73 1620.49 1462.73 Q1626.28 1462.73 1629.66 1465.9 Q1633.04 1469.08 1633.04 1474.49 Q1633.04 1480.07 1629.56 1483.17 Q1626.09 1486.25 1619.77 1486.25 Q1617.6 1486.25 1615.33 1485.88 Q1613.08 1485.51 1610.68 1484.77 L1610.68 1480.07 Q1612.76 1481.2 1614.98 1481.76 Q1617.2 1482.32 1619.68 1482.32 Q1623.69 1482.32 1626.02 1480.21 Q1628.36 1478.1 1628.36 1474.49 Q1628.36 1470.88 1626.02 1468.77 Q1623.69 1466.67 1619.68 1466.67 Q1617.81 1466.67 1615.93 1467.08 Q1614.08 1467.5 1612.13 1468.38 L1612.13 1451.02 Z" fill="#000000" fill-rule="nonzero" fill-opacity="1" /><path clip-path="url(#clip730)" d="M1881.78 1466.95 Q1885.14 1467.66 1887.02 1469.93 Q1888.91 1472.2 1888.91 1475.53 Q1888.91 1480.65 1885.4 1483.45 Q1881.88 1486.25 1875.4 1486.25 Q1873.22 1486.25 1870.91 1485.81 Q1868.61 1485.39 1866.16 1484.54 L1866.16 1480.02 Q1868.1 1481.16 1870.42 1481.74 Q1872.73 1482.32 1875.26 1482.32 Q1879.65 1482.32 1881.95 1480.58 Q1884.26 1478.84 1884.26 1475.53 Q1884.26 1472.48 1882.11 1470.77 Q1879.98 1469.03 1876.16 1469.03 L1872.13 1469.03 L1872.13 1465.19 L1876.34 1465.19 Q1879.79 1465.19 1881.62 1463.82 Q1883.45 1462.43 1883.45 1459.84 Q1883.45 1457.18 1881.55 1455.77 Q1879.68 1454.33 1876.16 1454.33 Q1874.24 1454.33 1872.04 1454.75 Q1869.84 1455.16 1867.2 1456.04 L1867.2 1451.88 Q1869.86 1451.14 1872.18 1450.77 Q1874.52 1450.39 1876.58 1450.39 Q1881.9 1450.39 1885 1452.83 Q1888.1 1455.23 1888.1 1459.35 Q1888.1 1462.22 1886.46 1464.21 Q1884.82 1466.18 1881.78 1466.95 Z" fill="#000000" fill-rule="nonzero" fill-opacity="1" /><path clip-path="url(#clip730)" d="M1907.78 1454.1 Q1904.17 1454.1 1902.34 1457.66 Q1900.53 1461.2 1900.53 1468.33 Q1900.53 1475.44 1902.34 1479.01 Q1904.17 1482.55 1907.78 1482.55 Q1911.41 1482.55 1913.22 1479.01 Q1915.05 1475.44 1915.05 1468.33 Q1915.05 1461.2 1913.22 1457.66 Q1911.41 1454.1 1907.78 1454.1 M1907.78 1450.39 Q1913.59 1450.39 1916.65 1455 Q1919.72 1459.58 1919.72 1468.33 Q1919.72 1477.06 1916.65 1481.67 Q1913.59 1486.25 1907.78 1486.25 Q1901.97 1486.25 1898.89 1481.67 Q1895.84 1477.06 1895.84 1468.33 Q1895.84 1459.58 1898.89 1455 Q1901.97 1450.39 1907.78 1450.39 Z" fill="#000000" fill-rule="nonzero" fill-opacity="1" /><path clip-path="url(#clip730)" d="M2168.54 1466.95 Q2171.9 1467.66 2173.77 1469.93 Q2175.67 1472.2 2175.67 1475.53 Q2175.67 1480.65 2172.15 1483.45 Q2168.63 1486.25 2162.15 1486.25 Q2159.98 1486.25 2157.66 1485.81 Q2155.37 1485.39 2152.92 1484.54 L2152.92 1480.02 Q2154.86 1481.16 2157.18 1481.74 Q2159.49 1482.32 2162.01 1482.32 Q2166.41 1482.32 2168.7 1480.58 Q2171.02 1478.84 2171.02 1475.53 Q2171.02 1472.48 2168.87 1470.77 Q2166.74 1469.03 2162.92 1469.03 L2158.89 1469.03 L2158.89 1465.19 L2163.1 1465.19 Q2166.55 1465.19 2168.38 1463.82 Q2170.21 1462.43 2170.21 1459.84 Q2170.21 1457.18 2168.31 1455.77 Q2166.43 1454.33 2162.92 1454.33 Q2161 1454.33 2158.8 1454.75 Q2156.6 1455.16 2153.96 1456.04 L2153.96 1451.88 Q2156.62 1451.14 2158.93 1450.77 Q2161.27 1450.39 2163.33 1450.39 Q2168.66 1450.39 2171.76 1452.83 Q2174.86 1455.23 2174.86 1459.35 Q2174.86 1462.22 2173.22 1464.21 Q2171.57 1466.18 2168.54 1466.95 Z" fill="#000000" fill-rule="nonzero" fill-opacity="1" /><path clip-path="url(#clip730)" d="M2184.58 1451.02 L2202.94 1451.02 L2202.94 1454.96 L2188.87 1454.96 L2188.87 1463.43 Q2189.88 1463.08 2190.9 1462.92 Q2191.92 1462.73 2192.94 1462.73 Q2198.73 1462.73 2202.11 1465.9 Q2205.49 1469.08 2205.49 1474.49 Q2205.49 1480.07 2202.01 1483.17 Q2198.54 1486.25 2192.22 1486.25 Q2190.05 1486.25 2187.78 1485.88 Q2185.53 1485.51 2183.12 1484.77 L2183.12 1480.07 Q2185.21 1481.2 2187.43 1481.76 Q2189.65 1482.32 2192.13 1482.32 Q2196.13 1482.32 2198.47 1480.21 Q2200.81 1478.1 2200.81 1474.49 Q2200.81 1470.88 2198.47 1468.77 Q2196.13 1466.67 2192.13 1466.67 Q2190.25 1466.67 2188.38 1467.08 Q2186.53 1467.5 2184.58 1468.38 L2184.58 1451.02 Z" fill="#000000" fill-rule="nonzero" fill-opacity="1" /><path clip-path="url(#clip730)" d="M1284.95 1524.18 L1284.95 1530.96 Q1281.7 1527.94 1278.01 1526.44 Q1274.35 1524.95 1270.21 1524.95 Q1262.06 1524.95 1257.73 1529.95 Q1253.4 1534.91 1253.4 1544.33 Q1253.4 1553.72 1257.73 1558.72 Q1262.06 1563.68 1270.21 1563.68 Q1274.35 1563.68 1278.01 1562.19 Q1281.7 1560.69 1284.95 1557.67 L1284.95 1564.38 Q1281.57 1566.68 1277.79 1567.82 Q1274.03 1568.97 1269.83 1568.97 Q1259.04 1568.97 1252.83 1562.38 Q1246.63 1555.76 1246.63 1544.33 Q1246.63 1532.87 1252.83 1526.28 Q1259.04 1519.66 1269.83 1519.66 Q1274.09 1519.66 1277.85 1520.81 Q1281.64 1521.92 1284.95 1524.18 Z" fill="#000000" fill-rule="nonzero" fill-opacity="1" /><path clip-path="url(#clip730)" d="M1308.44 1536.5 Q1303.73 1536.5 1300.99 1540.19 Q1298.25 1543.85 1298.25 1550.25 Q1298.25 1556.65 1300.96 1560.34 Q1303.69 1564 1308.44 1564 Q1313.12 1564 1315.85 1560.31 Q1318.59 1556.62 1318.59 1550.25 Q1318.59 1543.92 1315.85 1540.23 Q1313.12 1536.5 1308.44 1536.5 M1308.44 1531.54 Q1316.08 1531.54 1320.44 1536.5 Q1324.8 1541.47 1324.8 1550.25 Q1324.8 1559 1320.44 1564 Q1316.08 1568.97 1308.44 1568.97 Q1300.77 1568.97 1296.41 1564 Q1292.08 1559 1292.08 1550.25 Q1292.08 1541.47 1296.41 1536.5 Q1300.77 1531.54 1308.44 1531.54 Z" fill="#000000" fill-rule="nonzero" fill-opacity="1" /><path clip-path="url(#clip730)" d="M1357.23 1533.45 L1357.23 1538.98 Q1354.75 1537.71 1352.07 1537.07 Q1349.4 1536.44 1346.54 1536.44 Q1342.17 1536.44 1339.98 1537.77 Q1337.81 1539.11 1337.81 1541.79 Q1337.81 1543.82 1339.37 1545 Q1340.93 1546.15 1345.64 1547.2 L1347.65 1547.64 Q1353.89 1548.98 1356.5 1551.43 Q1359.14 1553.85 1359.14 1558.21 Q1359.14 1563.17 1355.19 1566.07 Q1351.28 1568.97 1344.4 1568.97 Q1341.54 1568.97 1338.42 1568.39 Q1335.33 1567.85 1331.89 1566.74 L1331.89 1560.69 Q1335.14 1562.38 1338.29 1563.24 Q1341.44 1564.07 1344.53 1564.07 Q1348.67 1564.07 1350.9 1562.66 Q1353.12 1561.23 1353.12 1558.65 Q1353.12 1556.27 1351.5 1554.99 Q1349.91 1553.72 1344.47 1552.54 L1342.43 1552.07 Q1336.99 1550.92 1334.57 1548.56 Q1332.15 1546.18 1332.15 1542.04 Q1332.15 1537.01 1335.71 1534.27 Q1339.28 1531.54 1345.83 1531.54 Q1349.08 1531.54 1351.95 1532.01 Q1354.81 1532.49 1357.23 1533.45 Z" fill="#000000" fill-rule="nonzero" fill-opacity="1" /><path clip-path="url(#clip730)" d="M1374.26 1522.27 L1374.26 1532.4 L1386.32 1532.4 L1386.32 1536.95 L1374.26 1536.95 L1374.26 1556.3 Q1374.26 1560.66 1375.44 1561.9 Q1376.64 1563.14 1380.31 1563.14 L1386.32 1563.14 L1386.32 1568.04 L1380.31 1568.04 Q1373.53 1568.04 1370.95 1565.53 Q1368.37 1562.98 1368.37 1556.3 L1368.37 1536.95 L1364.07 1536.95 L1364.07 1532.4 L1368.37 1532.4 L1368.37 1522.27 L1374.26 1522.27 Z" fill="#000000" fill-rule="nonzero" fill-opacity="1" /><polyline clip-path="url(#clip730)" style="stroke:#000000; stroke-linecap:round; stroke-linejoin:round; stroke-width:4; stroke-opacity:1; fill:none" points="280.19,1423.18 280.19,123.472 "/>
<polyline clip-path="url(#clip730)" style="stroke:#000000; stroke-linecap:round; stroke-linejoin:round; stroke-width:4; stroke-opacity:1; fill:none" points="280.19,1134.85 299.088,1134.85 "/>
<polyline clip-path="url(#clip730)" style="stroke:#000000; stroke-linecap:round; stroke-linejoin:round; stroke-width:4; stroke-opacity:1; fill:none" points="280.19,812.564 299.088,812.564 "/>
<polyline clip-path="url(#clip730)" style="stroke:#000000; stroke-linecap:round; stroke-linejoin:round; stroke-width:4; stroke-opacity:1; fill:none" points="280.19,490.278 299.088,490.278 "/>
<polyline clip-path="url(#clip730)" style="stroke:#000000; stroke-linecap:round; stroke-linejoin:round; stroke-width:4; stroke-opacity:1; fill:none" points="280.19,167.991 299.088,167.991 "/>
<path clip-path="url(#clip730)" d="M128.288 1120.65 Q124.677 1120.65 122.848 1124.21 Q121.043 1127.76 121.043 1134.89 Q121.043 1141.99 122.848 1145.56 Q124.677 1149.1 128.288 1149.1 Q131.922 1149.1 133.728 1145.56 Q135.556 1141.99 135.556 1134.89 Q135.556 1127.76 133.728 1124.21 Q131.922 1120.65 128.288 1120.65 M128.288 1116.95 Q134.098 1116.95 137.154 1121.55 Q140.232 1126.14 140.232 1134.89 Q140.232 1143.61 137.154 1148.22 Q134.098 1152.8 128.288 1152.8 Q122.478 1152.8 119.399 1148.22 Q116.343 1143.61 116.343 1134.89 Q116.343 1126.14 119.399 1121.55 Q122.478 1116.95 128.288 1116.95 Z" fill="#000000" fill-rule="nonzero" fill-opacity="1" /><path clip-path="url(#clip730)" d="M148.45 1146.25 L153.334 1146.25 L153.334 1152.13 L148.45 1152.13 L148.45 1146.25 Z" fill="#000000" fill-rule="nonzero" fill-opacity="1" /><path clip-path="url(#clip730)" d="M173.519 1120.65 Q169.908 1120.65 168.079 1124.21 Q166.274 1127.76 166.274 1134.89 Q166.274 1141.99 168.079 1145.56 Q169.908 1149.1 173.519 1149.1 Q177.153 1149.1 178.959 1145.56 Q180.788 1141.99 180.788 1134.89 Q180.788 1127.76 178.959 1124.21 Q177.153 1120.65 173.519 1120.65 M173.519 1116.95 Q179.329 1116.95 182.385 1121.55 Q185.463 1126.14 185.463 1134.89 Q185.463 1143.61 182.385 1148.22 Q179.329 1152.8 173.519 1152.8 Q167.709 1152.8 164.63 1148.22 Q161.575 1143.61 161.575 1134.89 Q161.575 1126.14 164.63 1121.55 Q167.709 1116.95 173.519 1116.95 Z" fill="#000000" fill-rule="nonzero" fill-opacity="1" /><path clip-path="url(#clip730)" d="M203.681 1120.65 Q200.07 1120.65 198.241 1124.21 Q196.436 1127.76 196.436 1134.89 Q196.436 1141.99 198.241 1145.56 Q200.07 1149.1 203.681 1149.1 Q207.315 1149.1 209.121 1145.56 Q210.949 1141.99 210.949 1134.89 Q210.949 1127.76 209.121 1124.21 Q207.315 1120.65 203.681 1120.65 M203.681 1116.95 Q209.491 1116.95 212.547 1121.55 Q215.625 1126.14 215.625 1134.89 Q215.625 1143.61 212.547 1148.22 Q209.491 1152.8 203.681 1152.8 Q197.871 1152.8 194.792 1148.22 Q191.737 1143.61 191.737 1134.89 Q191.737 1126.14 194.792 1121.55 Q197.871 1116.95 203.681 1116.95 Z" fill="#000000" fill-rule="nonzero" fill-opacity="1" /><path clip-path="url(#clip730)" d="M227.871 1148.2 L244.19 1148.2 L244.19 1152.13 L222.246 1152.13 L222.246 1148.2 Q224.908 1145.44 229.491 1140.81 Q234.097 1136.16 235.278 1134.82 Q237.523 1132.29 238.403 1130.56 Q239.306 1128.8 239.306 1127.11 Q239.306 1124.35 237.361 1122.62 Q235.44 1120.88 232.338 1120.88 Q230.139 1120.88 227.685 1121.65 Q225.255 1122.41 222.477 1123.96 L222.477 1119.24 Q225.301 1118.1 227.755 1117.52 Q230.209 1116.95 232.246 1116.95 Q237.616 1116.95 240.81 1119.63 Q244.005 1122.32 244.005 1126.81 Q244.005 1128.94 243.195 1130.86 Q242.408 1132.76 240.301 1135.35 Q239.722 1136.02 236.621 1139.24 Q233.519 1142.43 227.871 1148.2 Z" fill="#000000" fill-rule="nonzero" fill-opacity="1" /><path clip-path="url(#clip730)" d="M126.205 798.363 Q122.593 798.363 120.765 801.928 Q118.959 805.47 118.959 812.599 Q118.959 819.706 120.765 823.27 Q122.593 826.812 126.205 826.812 Q129.839 826.812 131.644 823.27 Q133.473 819.706 133.473 812.599 Q133.473 805.47 131.644 801.928 Q129.839 798.363 126.205 798.363 M126.205 794.659 Q132.015 794.659 135.07 799.266 Q138.149 803.849 138.149 812.599 Q138.149 821.326 135.07 825.932 Q132.015 830.516 126.205 830.516 Q120.394 830.516 117.316 825.932 Q114.26 821.326 114.26 812.599 Q114.26 803.849 117.316 799.266 Q120.394 794.659 126.205 794.659 Z" fill="#000000" fill-rule="nonzero" fill-opacity="1" /><path clip-path="url(#clip730)" d="M146.366 823.965 L151.251 823.965 L151.251 829.844 L146.366 829.844 L146.366 823.965 Z" fill="#000000" fill-rule="nonzero" fill-opacity="1" /><path clip-path="url(#clip730)" d="M171.436 798.363 Q167.825 798.363 165.996 801.928 Q164.19 805.47 164.19 812.599 Q164.19 819.706 165.996 823.27 Q167.825 826.812 171.436 826.812 Q175.07 826.812 176.876 823.27 Q178.704 819.706 178.704 812.599 Q178.704 805.47 176.876 801.928 Q175.07 798.363 171.436 798.363 M171.436 794.659 Q177.246 794.659 180.301 799.266 Q183.38 803.849 183.38 812.599 Q183.38 821.326 180.301 825.932 Q177.246 830.516 171.436 830.516 Q165.626 830.516 162.547 825.932 Q159.491 821.326 159.491 812.599 Q159.491 803.849 162.547 799.266 Q165.626 794.659 171.436 794.659 Z" fill="#000000" fill-rule="nonzero" fill-opacity="1" /><path clip-path="url(#clip730)" d="M201.598 798.363 Q197.987 798.363 196.158 801.928 Q194.352 805.47 194.352 812.599 Q194.352 819.706 196.158 823.27 Q197.987 826.812 201.598 826.812 Q205.232 826.812 207.037 823.27 Q208.866 819.706 208.866 812.599 Q208.866 805.47 207.037 801.928 Q205.232 798.363 201.598 798.363 M201.598 794.659 Q207.408 794.659 210.463 799.266 Q213.542 803.849 213.542 812.599 Q213.542 821.326 210.463 825.932 Q207.408 830.516 201.598 830.516 Q195.787 830.516 192.709 825.932 Q189.653 821.326 189.653 812.599 Q189.653 803.849 192.709 799.266 Q195.787 794.659 201.598 794.659 Z" fill="#000000" fill-rule="nonzero" fill-opacity="1" /><path clip-path="url(#clip730)" d="M234.607 799.358 L222.801 817.807 L234.607 817.807 L234.607 799.358 M233.38 795.284 L239.259 795.284 L239.259 817.807 L244.19 817.807 L244.19 821.696 L239.259 821.696 L239.259 829.844 L234.607 829.844 L234.607 821.696 L219.005 821.696 L219.005 817.182 L233.38 795.284 Z" fill="#000000" fill-rule="nonzero" fill-opacity="1" /><path clip-path="url(#clip730)" d="M126.529 476.076 Q122.918 476.076 121.089 479.641 Q119.283 483.183 119.283 490.313 Q119.283 497.419 121.089 500.984 Q122.918 504.525 126.529 504.525 Q130.163 504.525 131.968 500.984 Q133.797 497.419 133.797 490.313 Q133.797 483.183 131.968 479.641 Q130.163 476.076 126.529 476.076 M126.529 472.373 Q132.339 472.373 135.394 476.979 Q138.473 481.563 138.473 490.313 Q138.473 499.039 135.394 503.646 Q132.339 508.229 126.529 508.229 Q120.718 508.229 117.64 503.646 Q114.584 499.039 114.584 490.313 Q114.584 481.563 117.64 476.979 Q120.718 472.373 126.529 472.373 Z" fill="#000000" fill-rule="nonzero" fill-opacity="1" /><path clip-path="url(#clip730)" d="M146.691 501.678 L151.575 501.678 L151.575 507.558 L146.691 507.558 L146.691 501.678 Z" fill="#000000" fill-rule="nonzero" fill-opacity="1" /><path clip-path="url(#clip730)" d="M171.76 476.076 Q168.149 476.076 166.32 479.641 Q164.515 483.183 164.515 490.313 Q164.515 497.419 166.32 500.984 Q168.149 504.525 171.76 504.525 Q175.394 504.525 177.2 500.984 Q179.028 497.419 179.028 490.313 Q179.028 483.183 177.2 479.641 Q175.394 476.076 171.76 476.076 M171.76 472.373 Q177.57 472.373 180.626 476.979 Q183.704 481.563 183.704 490.313 Q183.704 499.039 180.626 503.646 Q177.57 508.229 171.76 508.229 Q165.95 508.229 162.871 503.646 Q159.815 499.039 159.815 490.313 Q159.815 481.563 162.871 476.979 Q165.95 472.373 171.76 472.373 Z" fill="#000000" fill-rule="nonzero" fill-opacity="1" /><path clip-path="url(#clip730)" d="M201.922 476.076 Q198.311 476.076 196.482 479.641 Q194.676 483.183 194.676 490.313 Q194.676 497.419 196.482 500.984 Q198.311 504.525 201.922 504.525 Q205.556 504.525 207.362 500.984 Q209.19 497.419 209.19 490.313 Q209.19 483.183 207.362 479.641 Q205.556 476.076 201.922 476.076 M201.922 472.373 Q207.732 472.373 210.787 476.979 Q213.866 481.563 213.866 490.313 Q213.866 499.039 210.787 503.646 Q207.732 508.229 201.922 508.229 Q196.112 508.229 193.033 503.646 Q189.977 499.039 189.977 490.313 Q189.977 481.563 193.033 476.979 Q196.112 472.373 201.922 472.373 Z" fill="#000000" fill-rule="nonzero" fill-opacity="1" /><path clip-path="url(#clip730)" d="M232.662 488.414 Q229.514 488.414 227.662 490.567 Q225.834 492.72 225.834 496.47 Q225.834 500.197 227.662 502.373 Q229.514 504.525 232.662 504.525 Q235.81 504.525 237.639 502.373 Q239.491 500.197 239.491 496.47 Q239.491 492.72 237.639 490.567 Q235.81 488.414 232.662 488.414 M241.945 473.762 L241.945 478.021 Q240.185 477.188 238.38 476.748 Q236.597 476.308 234.838 476.308 Q230.209 476.308 227.755 479.433 Q225.324 482.558 224.977 488.877 Q226.343 486.863 228.403 485.799 Q230.463 484.711 232.94 484.711 Q238.148 484.711 241.158 487.882 Q244.19 491.03 244.19 496.47 Q244.19 501.794 241.042 505.011 Q237.894 508.229 232.662 508.229 Q226.667 508.229 223.496 503.646 Q220.324 499.039 220.324 490.313 Q220.324 482.118 224.213 477.257 Q228.102 472.373 234.653 472.373 Q236.412 472.373 238.195 472.72 Q240 473.067 241.945 473.762 Z" fill="#000000" fill-rule="nonzero" fill-opacity="1" /><path clip-path="url(#clip730)" d="M126.783 153.79 Q123.172 153.79 121.343 157.355 Q119.538 160.896 119.538 168.026 Q119.538 175.132 121.343 178.697 Q123.172 182.239 126.783 182.239 Q130.417 182.239 132.223 178.697 Q134.052 175.132 134.052 168.026 Q134.052 160.896 132.223 157.355 Q130.417 153.79 126.783 153.79 M126.783 150.086 Q132.593 150.086 135.649 154.693 Q138.728 159.276 138.728 168.026 Q138.728 176.753 135.649 181.359 Q132.593 185.942 126.783 185.942 Q120.973 185.942 117.894 181.359 Q114.839 176.753 114.839 168.026 Q114.839 159.276 117.894 154.693 Q120.973 150.086 126.783 150.086 Z" fill="#000000" fill-rule="nonzero" fill-opacity="1" /><path clip-path="url(#clip730)" d="M146.945 179.392 L151.829 179.392 L151.829 185.271 L146.945 185.271 L146.945 179.392 Z" fill="#000000" fill-rule="nonzero" fill-opacity="1" /><path clip-path="url(#clip730)" d="M172.014 153.79 Q168.403 153.79 166.575 157.355 Q164.769 160.896 164.769 168.026 Q164.769 175.132 166.575 178.697 Q168.403 182.239 172.014 182.239 Q175.649 182.239 177.454 178.697 Q179.283 175.132 179.283 168.026 Q179.283 160.896 177.454 157.355 Q175.649 153.79 172.014 153.79 M172.014 150.086 Q177.825 150.086 180.88 154.693 Q183.959 159.276 183.959 168.026 Q183.959 176.753 180.88 181.359 Q177.825 185.942 172.014 185.942 Q166.204 185.942 163.126 181.359 Q160.07 176.753 160.07 168.026 Q160.07 159.276 163.126 154.693 Q166.204 150.086 172.014 150.086 Z" fill="#000000" fill-rule="nonzero" fill-opacity="1" /><path clip-path="url(#clip730)" d="M202.176 153.79 Q198.565 153.79 196.737 157.355 Q194.931 160.896 194.931 168.026 Q194.931 175.132 196.737 178.697 Q198.565 182.239 202.176 182.239 Q205.811 182.239 207.616 178.697 Q209.445 175.132 209.445 168.026 Q209.445 160.896 207.616 157.355 Q205.811 153.79 202.176 153.79 M202.176 150.086 Q207.987 150.086 211.042 154.693 Q214.121 159.276 214.121 168.026 Q214.121 176.753 211.042 181.359 Q207.987 185.942 202.176 185.942 Q196.366 185.942 193.288 181.359 Q190.232 176.753 190.232 168.026 Q190.232 159.276 193.288 154.693 Q196.366 150.086 202.176 150.086 Z" fill="#000000" fill-rule="nonzero" fill-opacity="1" /><path clip-path="url(#clip730)" d="M232.338 168.859 Q229.005 168.859 227.084 170.642 Q225.185 172.424 225.185 175.549 Q225.185 178.674 227.084 180.456 Q229.005 182.239 232.338 182.239 Q235.672 182.239 237.593 180.456 Q239.514 178.651 239.514 175.549 Q239.514 172.424 237.593 170.642 Q235.695 168.859 232.338 168.859 M227.662 166.869 Q224.653 166.128 222.963 164.068 Q221.297 162.007 221.297 159.044 Q221.297 154.901 224.236 152.494 Q227.199 150.086 232.338 150.086 Q237.5 150.086 240.44 152.494 Q243.38 154.901 243.38 159.044 Q243.38 162.007 241.69 164.068 Q240.023 166.128 237.037 166.869 Q240.417 167.656 242.292 169.947 Q244.19 172.239 244.19 175.549 Q244.19 180.572 241.111 183.257 Q238.056 185.942 232.338 185.942 Q226.621 185.942 223.542 183.257 Q220.486 180.572 220.486 175.549 Q220.486 172.239 222.385 169.947 Q224.283 167.656 227.662 166.869 M225.949 159.484 Q225.949 162.169 227.616 163.674 Q229.306 165.179 232.338 165.179 Q235.347 165.179 237.037 163.674 Q238.75 162.169 238.75 159.484 Q238.75 156.799 237.037 155.294 Q235.347 153.79 232.338 153.79 Q229.306 153.79 227.616 155.294 Q225.949 156.799 225.949 159.484 Z" fill="#000000" fill-rule="nonzero" fill-opacity="1" /><path clip-path="url(#clip730)" d="M21.7677 927.01 L58.7206 927.01 L58.7206 919.244 Q58.7206 909.409 54.2646 904.857 Q49.8086 900.274 40.1964 900.274 Q30.6479 900.274 26.2237 904.857 Q21.7677 909.409 21.7677 919.244 L21.7677 927.01 M16.4842 933.439 L16.4842 920.231 Q16.4842 906.417 22.2451 899.956 Q27.9743 893.495 40.1964 893.495 Q52.4822 893.495 58.2432 899.988 Q64.0042 906.481 64.0042 920.231 L64.0042 933.439 L16.4842 933.439 Z" fill="#000000" fill-rule="nonzero" fill-opacity="1" /><path clip-path="url(#clip730)" d="M44.7161 853.009 L47.5806 853.009 L47.5806 879.936 Q53.6281 879.554 56.8109 876.307 Q59.9619 873.029 59.9619 867.204 Q59.9619 863.83 59.1344 860.679 Q58.3069 857.497 56.6518 854.377 L62.1899 854.377 Q63.5267 857.528 64.227 860.839 Q64.9272 864.149 64.9272 867.554 Q64.9272 876.084 59.9619 881.081 Q54.9967 886.047 46.5303 886.047 Q37.7774 886.047 32.6531 881.336 Q27.4968 876.594 27.4968 868.573 Q27.4968 861.38 32.1438 857.21 Q36.7589 853.009 44.7161 853.009 M42.9973 858.865 Q38.1912 858.929 35.3266 861.571 Q32.4621 864.181 32.4621 868.509 Q32.4621 873.411 35.2312 876.371 Q38.0002 879.299 43.0292 879.745 L42.9973 858.865 Z" fill="#000000" fill-rule="nonzero" fill-opacity="1" /><path clip-path="url(#clip730)" d="M14.479 825.35 L19.3487 825.35 L19.3487 830.952 Q19.3487 834.103 20.6219 835.344 Q21.895 836.553 25.2052 836.553 L28.3562 836.553 L28.3562 826.909 L32.9077 826.909 L32.9077 836.553 L64.0042 836.553 L64.0042 842.442 L32.9077 842.442 L32.9077 848.043 L28.3562 848.043 L28.3562 842.442 L25.8736 842.442 Q19.9216 842.442 17.2162 839.673 Q14.479 836.903 14.479 830.888 L14.479 825.35 Z" fill="#000000" fill-rule="nonzero" fill-opacity="1" /><path clip-path="url(#clip730)" d="M14.479 820.448 L14.479 814.592 L64.0042 814.592 L64.0042 820.448 L14.479 820.448 Z" fill="#000000" fill-rule="nonzero" fill-opacity="1" /><path clip-path="url(#clip730)" d="M44.7161 771.846 L47.5806 771.846 L47.5806 798.773 Q53.6281 798.391 56.8109 795.144 Q59.9619 791.866 59.9619 786.041 Q59.9619 782.668 59.1344 779.517 Q58.3069 776.334 56.6518 773.215 L62.1899 773.215 Q63.5267 776.366 64.227 779.676 Q64.9272 782.986 64.9272 786.392 Q64.9272 794.922 59.9619 799.919 Q54.9967 804.884 46.5303 804.884 Q37.7774 804.884 32.6531 800.173 Q27.4968 795.431 27.4968 787.41 Q27.4968 780.217 32.1438 776.047 Q36.7589 771.846 44.7161 771.846 M42.9973 777.702 Q38.1912 777.766 35.3266 780.408 Q32.4621 783.018 32.4621 787.346 Q32.4621 792.248 35.2312 795.208 Q38.0002 798.136 43.0292 798.582 L42.9973 777.702 Z" fill="#000000" fill-rule="nonzero" fill-opacity="1" /><path clip-path="url(#clip730)" d="M29.7248 736.58 L35.1993 736.58 Q33.8307 739.063 33.1623 741.577 Q32.4621 744.06 32.4621 746.606 Q32.4621 752.303 36.0905 755.454 Q39.6872 758.605 46.212 758.605 Q52.7369 758.605 56.3653 755.454 Q59.9619 752.303 59.9619 746.606 Q59.9619 744.06 59.2935 741.577 Q58.5933 739.063 57.2247 736.58 L62.6355 736.58 Q63.7814 739.031 64.3543 741.673 Q64.9272 744.282 64.9272 747.243 Q64.9272 755.295 59.8664 760.038 Q54.8057 764.78 46.212 764.78 Q37.491 764.78 32.4939 760.006 Q27.4968 755.2 27.4968 746.861 Q27.4968 744.155 28.0697 741.577 Q28.6108 738.999 29.7248 736.58 Z" fill="#000000" fill-rule="nonzero" fill-opacity="1" /><path clip-path="url(#clip730)" d="M18.2347 720.602 L28.3562 720.602 L28.3562 708.539 L32.9077 708.539 L32.9077 720.602 L52.2594 720.602 Q56.6199 720.602 57.8613 719.424 Q59.1026 718.215 59.1026 714.555 L59.1026 708.539 L64.0042 708.539 L64.0042 714.555 Q64.0042 721.334 61.4897 723.912 Q58.9434 726.49 52.2594 726.49 L32.9077 726.49 L32.9077 730.787 L28.3562 730.787 L28.3562 726.49 L18.2347 726.49 L18.2347 720.602 Z" fill="#000000" fill-rule="nonzero" fill-opacity="1" /><path clip-path="url(#clip730)" d="M28.3562 700.836 L28.3562 694.98 L64.0042 694.98 L64.0042 700.836 L28.3562 700.836 M14.479 700.836 L14.479 694.98 L21.895 694.98 L21.895 700.836 L14.479 700.836 Z" fill="#000000" fill-rule="nonzero" fill-opacity="1" /><path clip-path="url(#clip730)" d="M32.4621 668.912 Q32.4621 673.623 36.1542 676.36 Q39.8145 679.098 46.212 679.098 Q52.6095 679.098 56.3017 676.392 Q59.9619 673.655 59.9619 668.912 Q59.9619 664.234 56.2698 661.496 Q52.5777 658.759 46.212 658.759 Q39.8781 658.759 36.186 661.496 Q32.4621 664.234 32.4621 668.912 M27.4968 668.912 Q27.4968 661.274 32.4621 656.913 Q37.4273 652.553 46.212 652.553 Q54.9649 652.553 59.9619 656.913 Q64.9272 661.274 64.9272 668.912 Q64.9272 676.583 59.9619 680.944 Q54.9649 685.272 46.212 685.272 Q37.4273 685.272 32.4621 680.944 Q27.4968 676.583 27.4968 668.912 Z" fill="#000000" fill-rule="nonzero" fill-opacity="1" /><path clip-path="url(#clip730)" d="M42.4881 613.213 L64.0042 613.213 L64.0042 619.069 L42.679 619.069 Q37.6183 619.069 35.1038 621.042 Q32.5894 623.016 32.5894 626.962 Q32.5894 631.705 35.6131 634.442 Q38.6368 637.179 43.8567 637.179 L64.0042 637.179 L64.0042 643.068 L28.3562 643.068 L28.3562 637.179 L33.8944 637.179 Q30.6797 635.079 29.0883 632.246 Q27.4968 629.381 27.4968 625.658 Q27.4968 619.515 31.3163 616.364 Q35.1038 613.213 42.4881 613.213 Z" fill="#000000" fill-rule="nonzero" fill-opacity="1" /><path clip-path="url(#clip730)" d="M775.637 18.8205 L775.637 41.5461 L785.926 41.5461 Q791.638 41.5461 794.757 38.5889 Q797.876 35.6318 797.876 30.163 Q797.876 24.7348 794.757 21.7777 Q791.638 18.8205 785.926 18.8205 L775.637 18.8205 M767.454 12.096 L785.926 12.096 Q796.094 12.096 801.279 16.714 Q806.505 21.2916 806.505 30.163 Q806.505 39.1155 801.279 43.6931 Q796.094 48.2706 785.926 48.2706 L775.637 48.2706 L775.637 72.576 L767.454 72.576 L767.454 12.096 Z" fill="#000000" fill-rule="nonzero" fill-opacity="1" /><path clip-path="url(#clip730)" d="M834.051 49.7694 Q825.017 49.7694 821.533 51.8354 Q818.05 53.9013 818.05 58.8839 Q818.05 62.8538 820.642 65.2034 Q823.275 67.5124 827.772 67.5124 Q833.97 67.5124 837.697 63.1374 Q841.464 58.7219 841.464 51.4303 L841.464 49.7694 L834.051 49.7694 M848.918 46.6907 L848.918 72.576 L841.464 72.576 L841.464 65.6895 Q838.912 69.8214 835.104 71.8063 Q831.296 73.7508 825.787 73.7508 Q818.819 73.7508 814.687 69.8619 Q810.596 65.9325 810.596 59.3701 Q810.596 51.7138 815.7 47.825 Q820.845 43.9361 831.013 43.9361 L841.464 43.9361 L841.464 43.2069 Q841.464 38.0623 838.061 35.2672 Q834.699 32.4315 828.582 32.4315 Q824.693 32.4315 821.007 33.3632 Q817.321 34.295 813.918 36.1584 L813.918 29.2718 Q818.009 27.692 821.858 26.9223 Q825.706 26.1121 829.352 26.1121 Q839.195 26.1121 844.057 31.2163 Q848.918 36.3204 848.918 46.6907 Z" fill="#000000" fill-rule="nonzero" fill-opacity="1" /><path clip-path="url(#clip730)" d="M890.561 34.1734 Q889.305 33.4443 887.806 33.1202 Q886.348 32.7556 884.566 32.7556 Q878.246 32.7556 874.843 36.8875 Q871.481 40.9789 871.481 48.6757 L871.481 72.576 L863.987 72.576 L863.987 27.2059 L871.481 27.2059 L871.481 34.2544 Q873.831 30.1225 877.598 28.1376 Q881.365 26.1121 886.753 26.1121 Q887.523 26.1121 888.454 26.2337 Q889.386 26.3147 890.52 26.5172 L890.561 34.1734 Z" fill="#000000" fill-rule="nonzero" fill-opacity="1" /><path clip-path="url(#clip730)" d="M935.364 48.0275 L935.364 51.6733 L901.093 51.6733 Q901.579 59.3701 905.711 63.421 Q909.884 67.4314 917.297 67.4314 Q921.591 67.4314 925.601 66.3781 Q929.652 65.3249 933.622 63.2184 L933.622 70.267 Q929.612 71.9684 925.399 72.8596 Q921.186 73.7508 916.851 73.7508 Q905.995 73.7508 899.635 67.4314 Q893.316 61.1119 893.316 50.3365 Q893.316 39.1965 899.311 32.6746 Q905.347 26.1121 915.555 26.1121 Q924.71 26.1121 930.017 32.0264 Q935.364 37.9003 935.364 48.0275 M927.91 45.84 Q927.829 39.7232 924.467 36.0774 Q921.145 32.4315 915.636 32.4315 Q909.398 32.4315 905.63 35.9558 Q901.903 39.4801 901.336 45.8805 L927.91 45.84 Z" fill="#000000" fill-rule="nonzero" fill-opacity="1" /><path clip-path="url(#clip730)" d="M954.97 14.324 L954.97 27.2059 L970.323 27.2059 L970.323 32.9987 L954.97 32.9987 L954.97 57.6282 Q954.97 63.1779 956.469 64.7578 Q958.008 66.3376 962.667 66.3376 L970.323 66.3376 L970.323 72.576 L962.667 72.576 Q954.039 72.576 950.757 69.3758 Q947.476 66.1351 947.476 57.6282 L947.476 32.9987 L942.007 32.9987 L942.007 27.2059 L947.476 27.2059 L947.476 14.324 L954.97 14.324 Z" fill="#000000" fill-rule="nonzero" fill-opacity="1" /><path clip-path="url(#clip730)" d="M997.707 32.4315 Q991.712 32.4315 988.228 37.1306 Q984.744 41.7891 984.744 49.9314 Q984.744 58.0738 988.188 62.7728 Q991.671 67.4314 997.707 67.4314 Q1003.66 67.4314 1007.15 62.7323 Q1010.63 58.0333 1010.63 49.9314 Q1010.63 41.8701 1007.15 37.1711 Q1003.66 32.4315 997.707 32.4315 M997.707 26.1121 Q1007.43 26.1121 1012.98 32.4315 Q1018.53 38.7509 1018.53 49.9314 Q1018.53 61.0714 1012.98 67.4314 Q1007.43 73.7508 997.707 73.7508 Q987.945 73.7508 982.395 67.4314 Q976.886 61.0714 976.886 49.9314 Q976.886 38.7509 982.395 32.4315 Q987.945 26.1121 997.707 26.1121 Z" fill="#000000" fill-rule="nonzero" fill-opacity="1" /><path clip-path="url(#clip730)" d="M1080.22 9.54393 L1080.22 15.7418 L1073.09 15.7418 Q1069.08 15.7418 1067.5 17.3622 Q1065.97 18.9825 1065.97 23.1955 L1065.97 27.2059 L1078.24 27.2059 L1078.24 32.9987 L1065.97 32.9987 L1065.97 72.576 L1058.47 72.576 L1058.47 32.9987 L1051.34 32.9987 L1051.34 27.2059 L1058.47 27.2059 L1058.47 24.0462 Q1058.47 16.471 1062 13.0277 Q1065.52 9.54393 1073.18 9.54393 L1080.22 9.54393 Z" fill="#000000" fill-rule="nonzero" fill-opacity="1" /><path clip-path="url(#clip730)" d="M1112.75 34.1734 Q1111.5 33.4443 1110 33.1202 Q1108.54 32.7556 1106.76 32.7556 Q1100.44 32.7556 1097.04 36.8875 Q1093.67 40.9789 1093.67 48.6757 L1093.67 72.576 L1086.18 72.576 L1086.18 27.2059 L1093.67 27.2059 L1093.67 34.2544 Q1096.02 30.1225 1099.79 28.1376 Q1103.56 26.1121 1108.95 26.1121 Q1109.71 26.1121 1110.65 26.2337 Q1111.58 26.3147 1112.71 26.5172 L1112.75 34.1734 Z" fill="#000000" fill-rule="nonzero" fill-opacity="1" /><path clip-path="url(#clip730)" d="M1136.33 32.4315 Q1130.33 32.4315 1126.85 37.1306 Q1123.37 41.7891 1123.37 49.9314 Q1123.37 58.0738 1126.81 62.7728 Q1130.29 67.4314 1136.33 67.4314 Q1142.28 67.4314 1145.77 62.7323 Q1149.25 58.0333 1149.25 49.9314 Q1149.25 41.8701 1145.77 37.1711 Q1142.28 32.4315 1136.33 32.4315 M1136.33 26.1121 Q1146.05 26.1121 1151.6 32.4315 Q1157.15 38.7509 1157.15 49.9314 Q1157.15 61.0714 1151.6 67.4314 Q1146.05 73.7508 1136.33 73.7508 Q1126.57 73.7508 1121.02 67.4314 Q1115.51 61.0714 1115.51 49.9314 Q1115.51 38.7509 1121.02 32.4315 Q1126.57 26.1121 1136.33 26.1121 Z" fill="#000000" fill-rule="nonzero" fill-opacity="1" /><path clip-path="url(#clip730)" d="M1207.22 45.1919 L1207.22 72.576 L1199.77 72.576 L1199.77 45.4349 Q1199.77 38.994 1197.25 35.7938 Q1194.74 32.5936 1189.72 32.5936 Q1183.68 32.5936 1180.2 36.4419 Q1176.72 40.2903 1176.72 46.9338 L1176.72 72.576 L1169.22 72.576 L1169.22 27.2059 L1176.72 27.2059 L1176.72 34.2544 Q1179.39 30.163 1183 28.1376 Q1186.64 26.1121 1191.38 26.1121 Q1199.2 26.1121 1203.21 30.9732 Q1207.22 35.7938 1207.22 45.1919 Z" fill="#000000" fill-rule="nonzero" fill-opacity="1" /><path clip-path="url(#clip730)" d="M1229.46 14.324 L1229.46 27.2059 L1244.81 27.2059 L1244.81 32.9987 L1229.46 32.9987 L1229.46 57.6282 Q1229.46 63.1779 1230.96 64.7578 Q1232.5 66.3376 1237.16 66.3376 L1244.81 66.3376 L1244.81 72.576 L1237.16 72.576 Q1228.53 72.576 1225.25 69.3758 Q1221.97 66.1351 1221.97 57.6282 L1221.97 32.9987 L1216.5 32.9987 L1216.5 27.2059 L1221.97 27.2059 L1221.97 14.324 L1229.46 14.324 Z" fill="#000000" fill-rule="nonzero" fill-opacity="1" /><path clip-path="url(#clip730)" d="M1301.61 49.7694 Q1292.57 49.7694 1289.09 51.8354 Q1285.61 53.9013 1285.61 58.8839 Q1285.61 62.8538 1288.2 65.2034 Q1290.83 67.5124 1295.33 67.5124 Q1301.53 67.5124 1305.25 63.1374 Q1309.02 58.7219 1309.02 51.4303 L1309.02 49.7694 L1301.61 49.7694 M1316.47 46.6907 L1316.47 72.576 L1309.02 72.576 L1309.02 65.6895 Q1306.47 69.8214 1302.66 71.8063 Q1298.85 73.7508 1293.34 73.7508 Q1286.37 73.7508 1282.24 69.8619 Q1278.15 65.9325 1278.15 59.3701 Q1278.15 51.7138 1283.26 47.825 Q1288.4 43.9361 1298.57 43.9361 L1309.02 43.9361 L1309.02 43.2069 Q1309.02 38.0623 1305.62 35.2672 Q1302.25 32.4315 1296.14 32.4315 Q1292.25 32.4315 1288.56 33.3632 Q1284.88 34.295 1281.47 36.1584 L1281.47 29.2718 Q1285.56 27.692 1289.41 26.9223 Q1293.26 26.1121 1296.91 26.1121 Q1306.75 26.1121 1311.61 31.2163 Q1316.47 36.3204 1316.47 46.6907 Z" fill="#000000" fill-rule="nonzero" fill-opacity="1" /><path clip-path="url(#clip730)" d="M1339.04 65.7705 L1339.04 89.8329 L1331.54 89.8329 L1331.54 27.2059 L1339.04 27.2059 L1339.04 34.0924 Q1341.39 30.0415 1344.95 28.0971 Q1348.56 26.1121 1353.54 26.1121 Q1361.8 26.1121 1366.95 32.6746 Q1372.13 39.2371 1372.13 49.9314 Q1372.13 60.6258 1366.95 67.1883 Q1361.8 73.7508 1353.54 73.7508 Q1348.56 73.7508 1344.95 71.8063 Q1341.39 69.8214 1339.04 65.7705 M1364.4 49.9314 Q1364.4 41.7081 1360.99 37.0496 Q1357.63 32.3505 1351.72 32.3505 Q1345.8 32.3505 1342.4 37.0496 Q1339.04 41.7081 1339.04 49.9314 Q1339.04 58.1548 1342.4 62.8538 Q1345.8 67.5124 1351.72 67.5124 Q1357.63 67.5124 1360.99 62.8538 Q1364.4 58.1548 1364.4 49.9314 Z" fill="#000000" fill-rule="nonzero" fill-opacity="1" /><path clip-path="url(#clip730)" d="M1391.7 65.7705 L1391.7 89.8329 L1384.2 89.8329 L1384.2 27.2059 L1391.7 27.2059 L1391.7 34.0924 Q1394.05 30.0415 1397.61 28.0971 Q1401.22 26.1121 1406.2 26.1121 Q1414.46 26.1121 1419.61 32.6746 Q1424.79 39.2371 1424.79 49.9314 Q1424.79 60.6258 1419.61 67.1883 Q1414.46 73.7508 1406.2 73.7508 Q1401.22 73.7508 1397.61 71.8063 Q1394.05 69.8214 1391.7 65.7705 M1417.06 49.9314 Q1417.06 41.7081 1413.65 37.0496 Q1410.29 32.3505 1404.38 32.3505 Q1398.46 32.3505 1395.06 37.0496 Q1391.7 41.7081 1391.7 49.9314 Q1391.7 58.1548 1395.06 62.8538 Q1398.46 67.5124 1404.38 67.5124 Q1410.29 67.5124 1413.65 62.8538 Q1417.06 58.1548 1417.06 49.9314 Z" fill="#000000" fill-rule="nonzero" fill-opacity="1" /><path clip-path="url(#clip730)" d="M1463.44 34.1734 Q1462.18 33.4443 1460.69 33.1202 Q1459.23 32.7556 1457.44 32.7556 Q1451.13 32.7556 1447.72 36.8875 Q1444.36 40.9789 1444.36 48.6757 L1444.36 72.576 L1436.87 72.576 L1436.87 27.2059 L1444.36 27.2059 L1444.36 34.2544 Q1446.71 30.1225 1450.48 28.1376 Q1454.24 26.1121 1459.63 26.1121 Q1460.4 26.1121 1461.33 26.2337 Q1462.27 26.3147 1463.4 26.5172 L1463.44 34.1734 Z" fill="#000000" fill-rule="nonzero" fill-opacity="1" /><path clip-path="url(#clip730)" d="M1487.02 32.4315 Q1481.02 32.4315 1477.54 37.1306 Q1474.05 41.7891 1474.05 49.9314 Q1474.05 58.0738 1477.5 62.7728 Q1480.98 67.4314 1487.02 67.4314 Q1492.97 67.4314 1496.45 62.7323 Q1499.94 58.0333 1499.94 49.9314 Q1499.94 41.8701 1496.45 37.1711 Q1492.97 32.4315 1487.02 32.4315 M1487.02 26.1121 Q1496.74 26.1121 1502.29 32.4315 Q1507.84 38.7509 1507.84 49.9314 Q1507.84 61.0714 1502.29 67.4314 Q1496.74 73.7508 1487.02 73.7508 Q1477.25 73.7508 1471.7 67.4314 Q1466.19 61.0714 1466.19 49.9314 Q1466.19 38.7509 1471.7 32.4315 Q1477.25 26.1121 1487.02 26.1121 Z" fill="#000000" fill-rule="nonzero" fill-opacity="1" /><path clip-path="url(#clip730)" d="M1555.35 27.2059 L1538.95 49.2833 L1556.21 72.576 L1547.42 72.576 L1534.21 54.752 L1521 72.576 L1512.21 72.576 L1529.83 48.8377 L1513.71 27.2059 L1522.5 27.2059 L1534.53 43.369 L1546.56 27.2059 L1555.35 27.2059 Z" fill="#000000" fill-rule="nonzero" fill-opacity="1" /><path clip-path="url(#clip730)" d="M1566.74 27.2059 L1574.19 27.2059 L1574.19 72.576 L1566.74 72.576 L1566.74 27.2059 M1566.74 9.54393 L1574.19 9.54393 L1574.19 18.9825 L1566.74 18.9825 L1566.74 9.54393 Z" fill="#000000" fill-rule="nonzero" fill-opacity="1" /><path clip-path="url(#clip730)" d="M1625.11 35.9153 Q1627.91 30.8922 1631.8 28.5022 Q1635.68 26.1121 1640.95 26.1121 Q1648.04 26.1121 1651.89 31.0947 Q1655.74 36.0368 1655.74 45.1919 L1655.74 72.576 L1648.24 72.576 L1648.24 45.4349 Q1648.24 38.913 1645.93 35.7533 Q1643.62 32.5936 1638.88 32.5936 Q1633.09 32.5936 1629.73 36.4419 Q1626.37 40.2903 1626.37 46.9338 L1626.37 72.576 L1618.87 72.576 L1618.87 45.4349 Q1618.87 38.8725 1616.56 35.7533 Q1614.25 32.5936 1609.43 32.5936 Q1603.72 32.5936 1600.36 36.4824 Q1597 40.3308 1597 46.9338 L1597 72.576 L1589.5 72.576 L1589.5 27.2059 L1597 27.2059 L1597 34.2544 Q1599.55 30.082 1603.11 28.0971 Q1606.68 26.1121 1611.58 26.1121 Q1616.52 26.1121 1619.97 28.6237 Q1623.45 31.1352 1625.11 35.9153 Z" fill="#000000" fill-rule="nonzero" fill-opacity="1" /><path clip-path="url(#clip730)" d="M1691.22 49.7694 Q1682.19 49.7694 1678.7 51.8354 Q1675.22 53.9013 1675.22 58.8839 Q1675.22 62.8538 1677.81 65.2034 Q1680.45 67.5124 1684.94 67.5124 Q1691.14 67.5124 1694.87 63.1374 Q1698.64 58.7219 1698.64 51.4303 L1698.64 49.7694 L1691.22 49.7694 M1706.09 46.6907 L1706.09 72.576 L1698.64 72.576 L1698.64 65.6895 Q1696.08 69.8214 1692.28 71.8063 Q1688.47 73.7508 1682.96 73.7508 Q1675.99 73.7508 1671.86 69.8619 Q1667.77 65.9325 1667.77 59.3701 Q1667.77 51.7138 1672.87 47.825 Q1678.02 43.9361 1688.18 43.9361 L1698.64 43.9361 L1698.64 43.2069 Q1698.64 38.0623 1695.23 35.2672 Q1691.87 32.4315 1685.75 32.4315 Q1681.86 32.4315 1678.18 33.3632 Q1674.49 34.295 1671.09 36.1584 L1671.09 29.2718 Q1675.18 27.692 1679.03 26.9223 Q1682.88 26.1121 1686.52 26.1121 Q1696.37 26.1121 1701.23 31.2163 Q1706.09 36.3204 1706.09 46.6907 Z" fill="#000000" fill-rule="nonzero" fill-opacity="1" /><path clip-path="url(#clip730)" d="M1728.81 14.324 L1728.81 27.2059 L1744.17 27.2059 L1744.17 32.9987 L1728.81 32.9987 L1728.81 57.6282 Q1728.81 63.1779 1730.31 64.7578 Q1731.85 66.3376 1736.51 66.3376 L1744.17 66.3376 L1744.17 72.576 L1736.51 72.576 Q1727.88 72.576 1724.6 69.3758 Q1721.32 66.1351 1721.32 57.6282 L1721.32 32.9987 L1715.85 32.9987 L1715.85 27.2059 L1721.32 27.2059 L1721.32 14.324 L1728.81 14.324 Z" fill="#000000" fill-rule="nonzero" fill-opacity="1" /><path clip-path="url(#clip730)" d="M1753.97 27.2059 L1761.42 27.2059 L1761.42 72.576 L1753.97 72.576 L1753.97 27.2059 M1753.97 9.54393 L1761.42 9.54393 L1761.42 18.9825 L1753.97 18.9825 L1753.97 9.54393 Z" fill="#000000" fill-rule="nonzero" fill-opacity="1" /><path clip-path="url(#clip730)" d="M1794.6 32.4315 Q1788.61 32.4315 1785.12 37.1306 Q1781.64 41.7891 1781.64 49.9314 Q1781.64 58.0738 1785.08 62.7728 Q1788.57 67.4314 1794.6 67.4314 Q1800.56 67.4314 1804.04 62.7323 Q1807.52 58.0333 1807.52 49.9314 Q1807.52 41.8701 1804.04 37.1711 Q1800.56 32.4315 1794.6 32.4315 M1794.6 26.1121 Q1804.32 26.1121 1809.87 32.4315 Q1815.42 38.7509 1815.42 49.9314 Q1815.42 61.0714 1809.87 67.4314 Q1804.32 73.7508 1794.6 73.7508 Q1784.84 73.7508 1779.29 67.4314 Q1773.78 61.0714 1773.78 49.9314 Q1773.78 38.7509 1779.29 32.4315 Q1784.84 26.1121 1794.6 26.1121 Z" fill="#000000" fill-rule="nonzero" fill-opacity="1" /><path clip-path="url(#clip730)" d="M1865.49 45.1919 L1865.49 72.576 L1858.04 72.576 L1858.04 45.4349 Q1858.04 38.994 1855.53 35.7938 Q1853.02 32.5936 1847.99 32.5936 Q1841.96 32.5936 1838.47 36.4419 Q1834.99 40.2903 1834.99 46.9338 L1834.99 72.576 L1827.49 72.576 L1827.49 27.2059 L1834.99 27.2059 L1834.99 34.2544 Q1837.66 30.163 1841.27 28.1376 Q1844.91 26.1121 1849.65 26.1121 Q1857.47 26.1121 1861.48 30.9732 Q1865.49 35.7938 1865.49 45.1919 Z" fill="#000000" fill-rule="nonzero" fill-opacity="1" /><circle clip-path="url(#clip731)" cx="338.848" cy="160.256" r="14.4" fill="#009af9" fill-rule="evenodd" fill-opacity="1" stroke="#000000" stroke-opacity="1" stroke-width="3.2"/>
<circle clip-path="url(#clip731)" cx="369.563" cy="469.49" r="14.4" fill="#009af9" fill-rule="evenodd" fill-opacity="1" stroke="#000000" stroke-opacity="1" stroke-width="3.2"/>
<circle clip-path="url(#clip731)" cx="401.208" cy="539.749" r="14.4" fill="#009af9" fill-rule="evenodd" fill-opacity="1" stroke="#000000" stroke-opacity="1" stroke-width="3.2"/>
<circle clip-path="url(#clip731)" cx="414.15" cy="692.351" r="14.4" fill="#009af9" fill-rule="evenodd" fill-opacity="1" stroke="#000000" stroke-opacity="1" stroke-width="3.2"/>
<circle clip-path="url(#clip731)" cx="436.225" cy="713.3" r="14.4" fill="#009af9" fill-rule="evenodd" fill-opacity="1" stroke="#000000" stroke-opacity="1" stroke-width="3.2"/>
<circle clip-path="url(#clip731)" cx="442.565" cy="772.44" r="14.4" fill="#009af9" fill-rule="evenodd" fill-opacity="1" stroke="#000000" stroke-opacity="1" stroke-width="3.2"/>
<circle clip-path="url(#clip731)" cx="451.292" cy="793.227" r="14.4" fill="#009af9" fill-rule="evenodd" fill-opacity="1" stroke="#000000" stroke-opacity="1" stroke-width="3.2"/>
<circle clip-path="url(#clip731)" cx="452.741" cy="805.152" r="14.4" fill="#009af9" fill-rule="evenodd" fill-opacity="1" stroke="#000000" stroke-opacity="1" stroke-width="3.2"/>
<circle clip-path="url(#clip731)" cx="457.376" cy="807.247" r="14.4" fill="#009af9" fill-rule="evenodd" fill-opacity="1" stroke="#000000" stroke-opacity="1" stroke-width="3.2"/>
<circle clip-path="url(#clip731)" cx="463.057" cy="828.195" r="14.4" fill="#009af9" fill-rule="evenodd" fill-opacity="1" stroke="#000000" stroke-opacity="1" stroke-width="3.2"/>
<circle clip-path="url(#clip731)" cx="467.508" cy="839.314" r="14.4" fill="#009af9" fill-rule="evenodd" fill-opacity="1" stroke="#000000" stroke-opacity="1" stroke-width="3.2"/>
<circle clip-path="url(#clip731)" cx="475.419" cy="849.788" r="14.4" fill="#009af9" fill-rule="evenodd" fill-opacity="1" stroke="#000000" stroke-opacity="1" stroke-width="3.2"/>
<circle clip-path="url(#clip731)" cx="490.265" cy="860.746" r="14.4" fill="#009af9" fill-rule="evenodd" fill-opacity="1" stroke="#000000" stroke-opacity="1" stroke-width="3.2"/>
<circle clip-path="url(#clip731)" cx="491.908" cy="872.187" r="14.4" fill="#009af9" fill-rule="evenodd" fill-opacity="1" stroke="#000000" stroke-opacity="1" stroke-width="3.2"/>
<circle clip-path="url(#clip731)" cx="492.251" cy="875.41" r="14.4" fill="#009af9" fill-rule="evenodd" fill-opacity="1" stroke="#000000" stroke-opacity="1" stroke-width="3.2"/>
<circle clip-path="url(#clip731)" cx="496.243" cy="915.052" r="14.4" fill="#009af9" fill-rule="evenodd" fill-opacity="1" stroke="#000000" stroke-opacity="1" stroke-width="3.2"/>
<circle clip-path="url(#clip731)" cx="508.8" cy="919.886" r="14.4" fill="#009af9" fill-rule="evenodd" fill-opacity="1" stroke="#000000" stroke-opacity="1" stroke-width="3.2"/>
<circle clip-path="url(#clip731)" cx="512.126" cy="922.142" r="14.4" fill="#009af9" fill-rule="evenodd" fill-opacity="1" stroke="#000000" stroke-opacity="1" stroke-width="3.2"/>
<circle clip-path="url(#clip731)" cx="516.23" cy="923.109" r="14.4" fill="#009af9" fill-rule="evenodd" fill-opacity="1" stroke="#000000" stroke-opacity="1" stroke-width="3.2"/>
<circle clip-path="url(#clip731)" cx="526.986" cy="932.294" r="14.4" fill="#009af9" fill-rule="evenodd" fill-opacity="1" stroke="#000000" stroke-opacity="1" stroke-width="3.2"/>
<circle clip-path="url(#clip731)" cx="531.071" cy="941.801" r="14.4" fill="#009af9" fill-rule="evenodd" fill-opacity="1" stroke="#000000" stroke-opacity="1" stroke-width="3.2"/>
<circle clip-path="url(#clip731)" cx="543.722" cy="961.622" r="14.4" fill="#009af9" fill-rule="evenodd" fill-opacity="1" stroke="#000000" stroke-opacity="1" stroke-width="3.2"/>
<circle clip-path="url(#clip731)" cx="544.226" cy="962.428" r="14.4" fill="#009af9" fill-rule="evenodd" fill-opacity="1" stroke="#000000" stroke-opacity="1" stroke-width="3.2"/>
<circle clip-path="url(#clip731)" cx="545.729" cy="977.092" r="14.4" fill="#009af9" fill-rule="evenodd" fill-opacity="1" stroke="#000000" stroke-opacity="1" stroke-width="3.2"/>
<circle clip-path="url(#clip731)" cx="548.831" cy="978.059" r="14.4" fill="#009af9" fill-rule="evenodd" fill-opacity="1" stroke="#000000" stroke-opacity="1" stroke-width="3.2"/>
<circle clip-path="url(#clip731)" cx="552.497" cy="998.201" r="14.4" fill="#009af9" fill-rule="evenodd" fill-opacity="1" stroke="#000000" stroke-opacity="1" stroke-width="3.2"/>
<circle clip-path="url(#clip731)" cx="567.308" cy="1016.41" r="14.4" fill="#009af9" fill-rule="evenodd" fill-opacity="1" stroke="#000000" stroke-opacity="1" stroke-width="3.2"/>
<circle clip-path="url(#clip731)" cx="567.972" cy="1016.57" r="14.4" fill="#009af9" fill-rule="evenodd" fill-opacity="1" stroke="#000000" stroke-opacity="1" stroke-width="3.2"/>
<circle clip-path="url(#clip731)" cx="574.23" cy="1027.05" r="14.4" fill="#009af9" fill-rule="evenodd" fill-opacity="1" stroke="#000000" stroke-opacity="1" stroke-width="3.2"/>
<circle clip-path="url(#clip731)" cx="590.355" cy="1033.33" r="14.4" fill="#009af9" fill-rule="evenodd" fill-opacity="1" stroke="#000000" stroke-opacity="1" stroke-width="3.2"/>
<circle clip-path="url(#clip731)" cx="599.329" cy="1039.94" r="14.4" fill="#009af9" fill-rule="evenodd" fill-opacity="1" stroke="#000000" stroke-opacity="1" stroke-width="3.2"/>
<circle clip-path="url(#clip731)" cx="602.702" cy="1059.27" r="14.4" fill="#009af9" fill-rule="evenodd" fill-opacity="1" stroke="#000000" stroke-opacity="1" stroke-width="3.2"/>
<circle clip-path="url(#clip731)" cx="615.844" cy="1060.08" r="14.4" fill="#009af9" fill-rule="evenodd" fill-opacity="1" stroke="#000000" stroke-opacity="1" stroke-width="3.2"/>
<circle clip-path="url(#clip731)" cx="635.788" cy="1060.73" r="14.4" fill="#009af9" fill-rule="evenodd" fill-opacity="1" stroke="#000000" stroke-opacity="1" stroke-width="3.2"/>
<circle clip-path="url(#clip731)" cx="646.139" cy="1065.08" r="14.4" fill="#009af9" fill-rule="evenodd" fill-opacity="1" stroke="#000000" stroke-opacity="1" stroke-width="3.2"/>
<circle clip-path="url(#clip731)" cx="657.266" cy="1097.14" r="14.4" fill="#009af9" fill-rule="evenodd" fill-opacity="1" stroke="#000000" stroke-opacity="1" stroke-width="3.2"/>
<circle clip-path="url(#clip731)" cx="660.899" cy="1107.3" r="14.4" fill="#009af9" fill-rule="evenodd" fill-opacity="1" stroke="#000000" stroke-opacity="1" stroke-width="3.2"/>
<circle clip-path="url(#clip731)" cx="695.077" cy="1114.87" r="14.4" fill="#009af9" fill-rule="evenodd" fill-opacity="1" stroke="#000000" stroke-opacity="1" stroke-width="3.2"/>
<circle clip-path="url(#clip731)" cx="696.609" cy="1131.14" r="14.4" fill="#009af9" fill-rule="evenodd" fill-opacity="1" stroke="#000000" stroke-opacity="1" stroke-width="3.2"/>
<circle clip-path="url(#clip731)" cx="703.588" cy="1132.27" r="14.4" fill="#009af9" fill-rule="evenodd" fill-opacity="1" stroke="#000000" stroke-opacity="1" stroke-width="3.2"/>
<circle clip-path="url(#clip731)" cx="705.823" cy="1135.33" r="14.4" fill="#009af9" fill-rule="evenodd" fill-opacity="1" stroke="#000000" stroke-opacity="1" stroke-width="3.2"/>
<circle clip-path="url(#clip731)" cx="715.06" cy="1140.01" r="14.4" fill="#009af9" fill-rule="evenodd" fill-opacity="1" stroke="#000000" stroke-opacity="1" stroke-width="3.2"/>
<circle clip-path="url(#clip731)" cx="716.024" cy="1141.78" r="14.4" fill="#009af9" fill-rule="evenodd" fill-opacity="1" stroke="#000000" stroke-opacity="1" stroke-width="3.2"/>
<circle clip-path="url(#clip731)" cx="728.927" cy="1148.87" r="14.4" fill="#009af9" fill-rule="evenodd" fill-opacity="1" stroke="#000000" stroke-opacity="1" stroke-width="3.2"/>
<circle clip-path="url(#clip731)" cx="743.653" cy="1165.47" r="14.4" fill="#009af9" fill-rule="evenodd" fill-opacity="1" stroke="#000000" stroke-opacity="1" stroke-width="3.2"/>
<circle clip-path="url(#clip731)" cx="756.773" cy="1167.56" r="14.4" fill="#009af9" fill-rule="evenodd" fill-opacity="1" stroke="#000000" stroke-opacity="1" stroke-width="3.2"/>
<circle clip-path="url(#clip731)" cx="761.552" cy="1168.05" r="14.4" fill="#009af9" fill-rule="evenodd" fill-opacity="1" stroke="#000000" stroke-opacity="1" stroke-width="3.2"/>
<circle clip-path="url(#clip731)" cx="771.85" cy="1170.14" r="14.4" fill="#009af9" fill-rule="evenodd" fill-opacity="1" stroke="#000000" stroke-opacity="1" stroke-width="3.2"/>
<circle clip-path="url(#clip731)" cx="782.641" cy="1181.26" r="14.4" fill="#009af9" fill-rule="evenodd" fill-opacity="1" stroke="#000000" stroke-opacity="1" stroke-width="3.2"/>
<circle clip-path="url(#clip731)" cx="807.576" cy="1191.73" r="14.4" fill="#009af9" fill-rule="evenodd" fill-opacity="1" stroke="#000000" stroke-opacity="1" stroke-width="3.2"/>
<circle clip-path="url(#clip731)" cx="814.269" cy="1204.95" r="14.4" fill="#009af9" fill-rule="evenodd" fill-opacity="1" stroke="#000000" stroke-opacity="1" stroke-width="3.2"/>
<circle clip-path="url(#clip731)" cx="836.654" cy="1206.72" r="14.4" fill="#009af9" fill-rule="evenodd" fill-opacity="1" stroke="#000000" stroke-opacity="1" stroke-width="3.2"/>
<circle clip-path="url(#clip731)" cx="860.277" cy="1223.32" r="14.4" fill="#009af9" fill-rule="evenodd" fill-opacity="1" stroke="#000000" stroke-opacity="1" stroke-width="3.2"/>
<circle clip-path="url(#clip731)" cx="893.192" cy="1235.73" r="14.4" fill="#009af9" fill-rule="evenodd" fill-opacity="1" stroke="#000000" stroke-opacity="1" stroke-width="3.2"/>
<circle clip-path="url(#clip731)" cx="941.209" cy="1247.49" r="14.4" fill="#009af9" fill-rule="evenodd" fill-opacity="1" stroke="#000000" stroke-opacity="1" stroke-width="3.2"/>
<circle clip-path="url(#clip731)" cx="964.666" cy="1255.23" r="14.4" fill="#009af9" fill-rule="evenodd" fill-opacity="1" stroke="#000000" stroke-opacity="1" stroke-width="3.2"/>
<circle clip-path="url(#clip731)" cx="984.829" cy="1260.22" r="14.4" fill="#009af9" fill-rule="evenodd" fill-opacity="1" stroke="#000000" stroke-opacity="1" stroke-width="3.2"/>
<circle clip-path="url(#clip731)" cx="985.568" cy="1260.87" r="14.4" fill="#009af9" fill-rule="evenodd" fill-opacity="1" stroke="#000000" stroke-opacity="1" stroke-width="3.2"/>
<circle clip-path="url(#clip731)" cx="1027.47" cy="1268.12" r="14.4" fill="#009af9" fill-rule="evenodd" fill-opacity="1" stroke="#000000" stroke-opacity="1" stroke-width="3.2"/>
<circle clip-path="url(#clip731)" cx="1047.4" cy="1272.47" r="14.4" fill="#009af9" fill-rule="evenodd" fill-opacity="1" stroke="#000000" stroke-opacity="1" stroke-width="3.2"/>
<circle clip-path="url(#clip731)" cx="1079.27" cy="1278.11" r="14.4" fill="#009af9" fill-rule="evenodd" fill-opacity="1" stroke="#000000" stroke-opacity="1" stroke-width="3.2"/>
<circle clip-path="url(#clip731)" cx="1091.45" cy="1282.94" r="14.4" fill="#009af9" fill-rule="evenodd" fill-opacity="1" stroke="#000000" stroke-opacity="1" stroke-width="3.2"/>
<circle clip-path="url(#clip731)" cx="1111.57" cy="1286" r="14.4" fill="#009af9" fill-rule="evenodd" fill-opacity="1" stroke="#000000" stroke-opacity="1" stroke-width="3.2"/>
<circle clip-path="url(#clip731)" cx="1128.12" cy="1293.58" r="14.4" fill="#009af9" fill-rule="evenodd" fill-opacity="1" stroke="#000000" stroke-opacity="1" stroke-width="3.2"/>
<circle clip-path="url(#clip731)" cx="1129.81" cy="1294.38" r="14.4" fill="#009af9" fill-rule="evenodd" fill-opacity="1" stroke="#000000" stroke-opacity="1" stroke-width="3.2"/>
<circle clip-path="url(#clip731)" cx="1154.78" cy="1298.73" r="14.4" fill="#009af9" fill-rule="evenodd" fill-opacity="1" stroke="#000000" stroke-opacity="1" stroke-width="3.2"/>
<circle clip-path="url(#clip731)" cx="1191.83" cy="1298.89" r="14.4" fill="#009af9" fill-rule="evenodd" fill-opacity="1" stroke="#000000" stroke-opacity="1" stroke-width="3.2"/>
<circle clip-path="url(#clip731)" cx="1195.84" cy="1304.86" r="14.4" fill="#009af9" fill-rule="evenodd" fill-opacity="1" stroke="#000000" stroke-opacity="1" stroke-width="3.2"/>
<circle clip-path="url(#clip731)" cx="1213.46" cy="1305.34" r="14.4" fill="#009af9" fill-rule="evenodd" fill-opacity="1" stroke="#000000" stroke-opacity="1" stroke-width="3.2"/>
<circle clip-path="url(#clip731)" cx="1231.01" cy="1309.85" r="14.4" fill="#009af9" fill-rule="evenodd" fill-opacity="1" stroke="#000000" stroke-opacity="1" stroke-width="3.2"/>
<circle clip-path="url(#clip731)" cx="1233.61" cy="1310.5" r="14.4" fill="#009af9" fill-rule="evenodd" fill-opacity="1" stroke="#000000" stroke-opacity="1" stroke-width="3.2"/>
<circle clip-path="url(#clip731)" cx="1256.44" cy="1314.04" r="14.4" fill="#009af9" fill-rule="evenodd" fill-opacity="1" stroke="#000000" stroke-opacity="1" stroke-width="3.2"/>
<circle clip-path="url(#clip731)" cx="1286.34" cy="1315.17" r="14.4" fill="#009af9" fill-rule="evenodd" fill-opacity="1" stroke="#000000" stroke-opacity="1" stroke-width="3.2"/>
<circle clip-path="url(#clip731)" cx="1300.82" cy="1318.88" r="14.4" fill="#009af9" fill-rule="evenodd" fill-opacity="1" stroke="#000000" stroke-opacity="1" stroke-width="3.2"/>
<circle clip-path="url(#clip731)" cx="1316.24" cy="1319.84" r="14.4" fill="#009af9" fill-rule="evenodd" fill-opacity="1" stroke="#000000" stroke-opacity="1" stroke-width="3.2"/>
<circle clip-path="url(#clip731)" cx="1316.38" cy="1322.74" r="14.4" fill="#009af9" fill-rule="evenodd" fill-opacity="1" stroke="#000000" stroke-opacity="1" stroke-width="3.2"/>
<circle clip-path="url(#clip731)" cx="1338.85" cy="1324.84" r="14.4" fill="#009af9" fill-rule="evenodd" fill-opacity="1" stroke="#000000" stroke-opacity="1" stroke-width="3.2"/>
<circle clip-path="url(#clip731)" cx="1392.96" cy="1331.77" r="14.4" fill="#009af9" fill-rule="evenodd" fill-opacity="1" stroke="#000000" stroke-opacity="1" stroke-width="3.2"/>
<circle clip-path="url(#clip731)" cx="1408.56" cy="1332.09" r="14.4" fill="#009af9" fill-rule="evenodd" fill-opacity="1" stroke="#000000" stroke-opacity="1" stroke-width="3.2"/>
<circle clip-path="url(#clip731)" cx="1409.73" cy="1332.57" r="14.4" fill="#009af9" fill-rule="evenodd" fill-opacity="1" stroke="#000000" stroke-opacity="1" stroke-width="3.2"/>
<circle clip-path="url(#clip731)" cx="1445.16" cy="1335.64" r="14.4" fill="#009af9" fill-rule="evenodd" fill-opacity="1" stroke="#000000" stroke-opacity="1" stroke-width="3.2"/>
<circle clip-path="url(#clip731)" cx="1494.72" cy="1336.6" r="14.4" fill="#009af9" fill-rule="evenodd" fill-opacity="1" stroke="#000000" stroke-opacity="1" stroke-width="3.2"/>
<circle clip-path="url(#clip731)" cx="1499.67" cy="1342.08" r="14.4" fill="#009af9" fill-rule="evenodd" fill-opacity="1" stroke="#000000" stroke-opacity="1" stroke-width="3.2"/>
<circle clip-path="url(#clip731)" cx="1603.76" cy="1347.4" r="14.4" fill="#009af9" fill-rule="evenodd" fill-opacity="1" stroke="#000000" stroke-opacity="1" stroke-width="3.2"/>
<circle clip-path="url(#clip731)" cx="1622.01" cy="1351.59" r="14.4" fill="#009af9" fill-rule="evenodd" fill-opacity="1" stroke="#000000" stroke-opacity="1" stroke-width="3.2"/>
<circle clip-path="url(#clip731)" cx="1669.25" cy="1354.33" r="14.4" fill="#009af9" fill-rule="evenodd" fill-opacity="1" stroke="#000000" stroke-opacity="1" stroke-width="3.2"/>
<circle clip-path="url(#clip731)" cx="1675.33" cy="1355.46" r="14.4" fill="#009af9" fill-rule="evenodd" fill-opacity="1" stroke="#000000" stroke-opacity="1" stroke-width="3.2"/>
<circle clip-path="url(#clip731)" cx="1772.14" cy="1356.91" r="14.4" fill="#009af9" fill-rule="evenodd" fill-opacity="1" stroke="#000000" stroke-opacity="1" stroke-width="3.2"/>
<circle clip-path="url(#clip731)" cx="1788.43" cy="1359.16" r="14.4" fill="#009af9" fill-rule="evenodd" fill-opacity="1" stroke="#000000" stroke-opacity="1" stroke-width="3.2"/>
<circle clip-path="url(#clip731)" cx="1792.42" cy="1359.81" r="14.4" fill="#009af9" fill-rule="evenodd" fill-opacity="1" stroke="#000000" stroke-opacity="1" stroke-width="3.2"/>
<circle clip-path="url(#clip731)" cx="1825.82" cy="1360.94" r="14.4" fill="#009af9" fill-rule="evenodd" fill-opacity="1" stroke="#000000" stroke-opacity="1" stroke-width="3.2"/>
<circle clip-path="url(#clip731)" cx="1890.31" cy="1361.74" r="14.4" fill="#009af9" fill-rule="evenodd" fill-opacity="1" stroke="#000000" stroke-opacity="1" stroke-width="3.2"/>
<circle clip-path="url(#clip731)" cx="1902.25" cy="1363.51" r="14.4" fill="#009af9" fill-rule="evenodd" fill-opacity="1" stroke="#000000" stroke-opacity="1" stroke-width="3.2"/>
<circle clip-path="url(#clip731)" cx="1913.19" cy="1368.67" r="14.4" fill="#009af9" fill-rule="evenodd" fill-opacity="1" stroke="#000000" stroke-opacity="1" stroke-width="3.2"/>
<circle clip-path="url(#clip731)" cx="1962.05" cy="1369.64" r="14.4" fill="#009af9" fill-rule="evenodd" fill-opacity="1" stroke="#000000" stroke-opacity="1" stroke-width="3.2"/>
<circle clip-path="url(#clip731)" cx="1984.7" cy="1369.8" r="14.4" fill="#009af9" fill-rule="evenodd" fill-opacity="1" stroke="#000000" stroke-opacity="1" stroke-width="3.2"/>
<circle clip-path="url(#clip731)" cx="2050.39" cy="1372.38" r="14.4" fill="#009af9" fill-rule="evenodd" fill-opacity="1" stroke="#000000" stroke-opacity="1" stroke-width="3.2"/>
<circle clip-path="url(#clip731)" cx="2082.87" cy="1372.86" r="14.4" fill="#009af9" fill-rule="evenodd" fill-opacity="1" stroke="#000000" stroke-opacity="1" stroke-width="3.2"/>
<circle clip-path="url(#clip731)" cx="2116.2" cy="1377.86" r="14.4" fill="#009af9" fill-rule="evenodd" fill-opacity="1" stroke="#000000" stroke-opacity="1" stroke-width="3.2"/>
<circle clip-path="url(#clip731)" cx="2135.42" cy="1379.63" r="14.4" fill="#009af9" fill-rule="evenodd" fill-opacity="1" stroke="#000000" stroke-opacity="1" stroke-width="3.2"/>
<circle clip-path="url(#clip731)" cx="2274.39" cy="1385.75" r="14.4" fill="#009af9" fill-rule="evenodd" fill-opacity="1" stroke="#000000" stroke-opacity="1" stroke-width="3.2"/>
<circle clip-path="url(#clip731)" cx="2294.1" cy="1386.4" r="14.4" fill="#009af9" fill-rule="evenodd" fill-opacity="1" stroke="#000000" stroke-opacity="1" stroke-width="3.2"/>
<path clip-path="url(#clip730)" d="M2023.98 270.476 L2283.67 270.476 L2283.67 166.796 L2023.98 166.796  Z" fill="#ffffff" fill-rule="evenodd" fill-opacity="1"/>
<polyline clip-path="url(#clip730)" style="stroke:#000000; stroke-linecap:round; stroke-linejoin:round; stroke-width:4; stroke-opacity:1; fill:none" points="2023.98,270.476 2283.67,270.476 2283.67,166.796 2023.98,166.796 2023.98,270.476 "/>
<circle clip-path="url(#clip730)" cx="2116.1" cy="218.636" r="20.48" fill="#009af9" fill-rule="evenodd" fill-opacity="1" stroke="#000000" stroke-opacity="1" stroke-width="4.55111"/>
<path clip-path="url(#clip730)" d="M2222.05 238.323 Q2220.25 242.953 2218.54 244.365 Q2216.82 245.777 2213.95 245.777 L2210.55 245.777 L2210.55 242.212 L2213.05 242.212 Q2214.81 242.212 2215.78 241.379 Q2216.75 240.545 2217.93 237.443 L2218.7 235.499 L2208.21 209.99 L2212.73 209.99 L2220.83 230.268 L2228.93 209.99 L2233.44 209.99 L2222.05 238.323 Z" fill="#000000" fill-rule="nonzero" fill-opacity="1" /><path clip-path="url(#clip730)" d="M2240.73 231.981 L2248.37 231.981 L2248.37 205.615 L2240.06 207.282 L2240.06 203.022 L2248.33 201.356 L2253 201.356 L2253 231.981 L2260.64 231.981 L2260.64 235.916 L2240.73 235.916 L2240.73 231.981 Z" fill="#000000" fill-rule="nonzero" fill-opacity="1" /></svg>
